<svg xmlns="http://www.w3.org/2000/svg" viewBox="0 0 1497.39 194.27"><defs><style>.cls-1{fill:#a7c947;}.cls-2{fill:#487a2d;}.cls-3{fill:#f47d20;}</style></defs><g id="Layer_1_Image" data-name="Layer 1 Image"><path d="M1160.31,159.25V96.16H1147.5V86.55h12.81V84.34A27.31,27.31,0,0,1,1162.15,74a20.51,20.51,0,0,1,5.28-7.61,22.49,22.49,0,0,1,8.39-4.67A37,37,0,0,1,1187,60.1a40.59,40.59,0,0,1,9.53,1.15l-.76,10.07c-1-.18-2.24-.33-3.56-.44s-2.63-.17-3.93-.17c-4.49,0-8,1.17-10.42,3.54s-3.66,5.72-3.66,10.11v2.21h13.67v9.62h-13.67v63.08h-13.87Z"/><path d="M921.73,135.12a14.66,14.66,0,0,0-1.18-6.06,12.33,12.33,0,0,0-4.12-4.79,34.34,34.34,0,0,0-8-4.11,125.16,125.16,0,0,0-12.74-3.92,118.66,118.66,0,0,1-14.65-4.73,49.23,49.23,0,0,1-11.16-6.12,25.25,25.25,0,0,1-7.07-7.9,20.44,20.44,0,0,1-2.47-10.14A21.88,21.88,0,0,1,863,76.76a25.83,25.83,0,0,1,7.54-8.46,36.81,36.81,0,0,1,11.69-5.6,53.33,53.33,0,0,1,15.21-2,49.76,49.76,0,0,1,16.41,2.5A38,38,0,0,1,926,69.75a27.92,27.92,0,0,1,7.46,9.46A25.57,25.57,0,0,1,936,90.3H921.53a19.59,19.59,0,0,0-1.45-7.59,16.33,16.33,0,0,0-4.45-6.06,21.68,21.68,0,0,0-7.49-4,36,36,0,0,0-10.63-1.41,37.06,37.06,0,0,0-10,1.22,21,21,0,0,0-7.05,3.32,13.59,13.59,0,0,0-4.13,5,14.92,14.92,0,0,0-1.34,6.32,11.15,11.15,0,0,0,1.45,5.64,15.11,15.11,0,0,0,4.54,4.71,36.44,36.44,0,0,0,7.9,4A108.33,108.33,0,0,0,900.39,105a110.16,110.16,0,0,1,16,5.21,44.86,44.86,0,0,1,11.13,6.49A22.44,22.44,0,0,1,936.2,135a21.76,21.76,0,0,1-2.69,10.81,24.32,24.32,0,0,1-7.68,8.26,38.49,38.49,0,0,1-12,5.28,64.45,64.45,0,0,1-25.67,1,54.35,54.35,0,0,1-9.64-2.52,45.5,45.5,0,0,1-8.55-4.17,31.87,31.87,0,0,1-6.86-5.77,25.47,25.47,0,0,1-4.58-7.4,23.92,23.92,0,0,1-1.65-9h14.46a16.23,16.23,0,0,0,2.21,8.64,18.51,18.51,0,0,0,5.93,6,27.19,27.19,0,0,0,8.55,3.45,45.63,45.63,0,0,0,10.15,1.1q11.4,0,17.45-4.16a13.08,13.08,0,0,0,6.08-11.35Z"/><path d="M978.82,151a22.4,22.4,0,0,0,7-1.08,20.31,20.31,0,0,0,6-2.95,15.73,15.73,0,0,0,4.19-4.47,13.12,13.12,0,0,0,1.91-5.6H1011a20.19,20.19,0,0,1-3,9.24,27.82,27.82,0,0,1-7,7.73A36.14,36.14,0,0,1,991,159.21a37,37,0,0,1-12.18,2,40,40,0,0,1-15.93-2.93,31.88,31.88,0,0,1-11.28-7.9,32.51,32.51,0,0,1-6.71-11.54,43.53,43.53,0,0,1-2.21-13.91v-2.83a43.62,43.62,0,0,1,2.21-13.91,31.63,31.63,0,0,1,18-19.44,39.66,39.66,0,0,1,15.88-2.93,39.17,39.17,0,0,1,12.94,2,32.07,32.07,0,0,1,10.05,5.53,25.91,25.91,0,0,1,6.64,8.36,26.39,26.39,0,0,1,2.69,10.41H997.94a17,17,0,0,0-1.76-6.27,16.65,16.65,0,0,0-3.93-5.1,18.56,18.56,0,0,0-5.88-3.45A21.77,21.77,0,0,0,978.78,96a22.35,22.35,0,0,0-10.68,2.28,19.27,19.27,0,0,0-6.81,6,24,24,0,0,0-3.63,8.4,43.05,43.05,0,0,0-1,9.37v2.83a43.62,43.62,0,0,0,1,9.5,23.44,23.44,0,0,0,3.61,8.36,19.17,19.17,0,0,0,6.81,6A22.56,22.56,0,0,0,978.82,151Z"/><path d="M1062.89,149.29h51.69v10.54h-66.16V60.68h14.45v88.61Z"/><path d="M1226,160.59a42.27,42.27,0,0,1-15.32-2.62,34.33,34.33,0,0,1-11.72-7.29,31.53,31.53,0,0,1-7.49-11.11,36.92,36.92,0,0,1-2.62-14.11v-2.82a40.26,40.26,0,0,1,3-15.86A35.06,35.06,0,0,1,1199.7,95a34.39,34.39,0,0,1,11.3-7.29,36,36,0,0,1,13.26-2.52,38,38,0,0,1,15,2.72,28.26,28.26,0,0,1,10.37,7.48,30.91,30.91,0,0,1,6,11.29,49.22,49.22,0,0,1,2,14.17v5.58h-54.93a28.21,28.21,0,0,0,1.85,9.39,22.32,22.32,0,0,0,4.79,7.6,22.77,22.77,0,0,0,7.49,5.1,24.86,24.86,0,0,0,9.92,1.89,26.22,26.22,0,0,0,12.43-2.69,30.82,30.82,0,0,0,8.92-7.12l8.46,5.9a32.47,32.47,0,0,1-4.73,5.21,31.16,31.16,0,0,1-6.49,4.49,37.21,37.21,0,0,1-8.5,3.17A43.36,43.36,0,0,1,1226,160.59Zm-1.72-65.16a21.15,21.15,0,0,0-7.72,1.36,19.34,19.34,0,0,0-6.3,4,21.29,21.29,0,0,0-4.6,6.51,30.7,30.7,0,0,0-2.51,8.94h40.6v-.94a31.9,31.9,0,0,0-1.3-7.18,18.9,18.9,0,0,0-3.37-6.38,17,17,0,0,0-5.88-4.58,20.62,20.62,0,0,0-8.92-1.73Z"/><path d="M1281.81,148.7h51.69v10.55h-66.16V60.1h14.45v88.6Z"/><path d="M1390.56,159.25a12.69,12.69,0,0,1-1.2-3.39c-.3-1.36-.54-2.77-.76-4.27a34.75,34.75,0,0,1-4.38,3.45,31.48,31.48,0,0,1-5.32,2.88,33.58,33.58,0,0,1-6.25,2,34,34,0,0,1-7.11.69,36.08,36.08,0,0,1-11.29-1.67,27.14,27.14,0,0,1-8.61-4.58,20.6,20.6,0,0,1-5.52-6.81,18.73,18.73,0,0,1-1.95-8.42,20.47,20.47,0,0,1,2.54-10.31,21.33,21.33,0,0,1,7.31-7.49,37.16,37.16,0,0,1,11.5-4.58,68.31,68.31,0,0,1,15.06-1.54h13.79v-5.7A13.21,13.21,0,0,0,1384,99.09q-4.35-3.87-12.8-3.86a25.26,25.26,0,0,0-7.12.93,19.35,19.35,0,0,0-5.51,2.52,12.38,12.38,0,0,0-3.56,3.67,8.32,8.32,0,0,0-1.28,4.36h-13.93A15,15,0,0,1,1342.1,99a23.33,23.33,0,0,1,6.49-6.87,35.71,35.71,0,0,1,10.15-5,43.22,43.22,0,0,1,13.31-1.91,45.83,45.83,0,0,1,12.17,1.52,26.83,26.83,0,0,1,9.55,4.57,21.48,21.48,0,0,1,6.23,7.62,24,24,0,0,1,2.25,10.68v33.79a44.67,44.67,0,0,0,.72,7.77,27.21,27.21,0,0,0,2.13,7v1.08h-14.54Zm-23-9.48a25.68,25.68,0,0,0,7.06-.94,28.78,28.78,0,0,0,6-2.45,22.16,22.16,0,0,0,4.68-3.45,16.65,16.65,0,0,0,3.11-4V124h-11.55q-11.91,0-18.36,3.32c-4.29,2.22-6.44,5.56-6.44,10a12.33,12.33,0,0,0,1,4.91,10.2,10.2,0,0,0,3,3.92,15,15,0,0,0,4.86,2.63A21.21,21.21,0,0,0,1367.55,149.77Z"/><path d="M1483.55,123.7a49,49,0,0,1-2.11,14.74,34.31,34.31,0,0,1-6.14,11.69,27.79,27.79,0,0,1-9.9,7.69,30.85,30.85,0,0,1-13.34,2.75,35,35,0,0,1-13.87-2.52,26.62,26.62,0,0,1-9.89-7.22l-.68,8.4h-12.74V60.1h13.87V94.56a27.24,27.24,0,0,1,9.74-6.93,34.41,34.41,0,0,1,13.42-2.4,32.09,32.09,0,0,1,13.52,2.69,27.58,27.58,0,0,1,9.89,7.55,33.63,33.63,0,0,1,6.1,11.7,51.54,51.54,0,0,1,2.1,15.14v1.39Zm-13.87-1.41a44.2,44.2,0,0,0-1.13-10.24,24.5,24.5,0,0,0-3.62-8.42,18.07,18.07,0,0,0-6.56-5.75,21.11,21.11,0,0,0-9.89-2.13,25.05,25.05,0,0,0-6.9.87,21.76,21.76,0,0,0-5.52,2.41,19.27,19.27,0,0,0-4.23,3.62,25.9,25.9,0,0,0-3.08,4.49v31.45a24.92,24.92,0,0,0,3.19,4.49,19.28,19.28,0,0,0,4.28,3.63,20.25,20.25,0,0,0,5.51,2.4,24.85,24.85,0,0,0,6.9.87,20.4,20.4,0,0,0,9.59-2.08,18.41,18.41,0,0,0,6.51-5.64,24.78,24.78,0,0,0,3.76-8.36,42.21,42.21,0,0,0,1.19-10.24Z"/><path d="M1035.61,159.83h-13.86V87.14h13.86Z"/><circle cx="1028.67" cy="68.84" r="8.16"/><circle cx="1131.55" cy="68.26" r="8.16"/><path d="M1138.5,159.25h-13.87V86.57h13.87Z"/><path class="cls-1" d="M734.29,112.09a22.93,22.93,0,0,0,2.09-9.7,22.12,22.12,0,0,0-1.07-6.6c-.06-.17-.1-.34-.17-.52l-.07-.19c0-.11-.06-.22-.1-.33a.42.42,0,0,1-.07-.15c-1.34-4.3-4.53-8.2-8.22-12.72-4.54-5.53-9.66-11.78-12.33-20.22-2.6-8.2-2-15.84-1.43-22.57.48-5.75.91-11.2-.67-16.21v0c0-.05,0-.09,0-.13s-.06-.22-.08-.33l-.07-.15c0-.17-.11-.35-.15-.54-.11-.37-.24-.74-.37-1.09l-.06-.15c-.11-.3-.24-.61-.37-.91,0,0,0,0,0,0A22.73,22.73,0,0,0,685.66,6.3c-.32.06-.67.15-1,.24a.27.27,0,0,1-.13,0,11.4,11.4,0,0,0-1.1.32,22.48,22.48,0,0,0-13.31,11.18,21,21,0,0,0-.93,2.06,22.5,22.5,0,0,0-1.63,8.66,22.12,22.12,0,0,0,1.07,6.6v0c.06.17.1.35.17.52l.06.17a1,1,0,0,1,0,.11l.06.16a.47.47,0,0,1,0,.1l0,.11c1.32,4.28,4.51,8.18,8.22,12.7,4.54,5.53,9.66,11.8,12.33,20.24s2.08,16.61,1.54,23.79c-.43,5.79-.8,10.78.54,15v0a.5.5,0,0,1,0,.13c0,.1.06.21.08.32l0,.18c0,.17.11.34.15.54s.2.61.3.89a22.72,22.72,0,0,0,28.22,13.91,22.46,22.46,0,0,0,13.3-11.18C734,112.79,734.14,112.44,734.29,112.09Z"/><path class="cls-1" d="M802.48,55a26.92,26.92,0,0,0-49,8.66l-.13.65-.05.21c0,.16-.06.31-.08.46v0a.22.22,0,0,1,0,.11v0c-1.18,5.19-.2,11.09.91,17.93,1.36,8.42,2.93,17.94.65,28.25s-7.75,18.36-12.57,25.46c-3.88,5.7-7.22,10.63-8.33,15.75v0c0,.05,0,.09,0,.13s-.07.26-.11.39l-.07.22c0,.22-.11.43-.15.65A26.94,26.94,0,0,0,754,186.05a27.47,27.47,0,0,0,5.89.65,26.73,26.73,0,0,0,14.43-4.23,28.08,28.08,0,0,0,4.19-3.28,26.73,26.73,0,0,0,7.63-13.6c0-.22.09-.44.13-.63l0-.22c0-.15.06-.3.08-.46v0a.81.81,0,0,1,0-.11c1.17-5.21.19-11.11-.92-18-1.36-8.39-2.92-17.92-.65-28.21,2.22-10,7.4-17.53,12-24.13,3.91-5.64,7.6-11,8.94-17.06,0,0,0,0,0,0s0-.09,0-.13.06-.26.11-.39L806,76c0-.21.11-.43.15-.65A27,27,0,0,0,802.48,55Z"/><path class="cls-1" d="M650.92,64.57a24.22,24.22,0,1,0,11.93,14.19A24,24,0,0,0,650.92,64.57Z"/></g><g id="Layer_2" data-name="Layer 2"><g id="g7130"><path id="path7134" class="cls-2" d="M309.42,15.7h0a4.29,4.29,0,0,0-3.83-2.35h-3.5A2.37,2.37,0,0,0,300,16.78l5.85,11.67,5.34,9.09a57.78,57.78,0,0,0,16.66,18L362.6,79.9a43.48,43.48,0,0,1,11.84,12.41l11.35,18.25,1.66-14.7L378.3,79.54a33.9,33.9,0,0,0-10.75-11.62L329.88,42.76l-3.65-3.33a65.6,65.6,0,0,1-14.37-18.91l-2.44-4.82"/><path id="path7136" class="cls-2" d="M330,152.06h0L317.47,140.6l-7.55-18.49.27-7.09-3.66,12.67,2,7.75a36.25,36.25,0,0,0,15.35,21.41l32.92,21.41a19.88,19.88,0,0,0,10.87,3.23H369a3.34,3.34,0,0,0,1.66-6.23L330,152.06"/><path id="path7138" class="cls-2" d="M385.05,38.2h0l.14.27a5.15,5.15,0,0,1,.37,3.94L384.14,47a1.79,1.79,0,0,1-3.12.57L362.2,23.42a3.82,3.82,0,0,1,3.21-6.16l5.85.3a5.09,5.09,0,0,1,4.25,2.71l9.54,17.93"/><path id="path7140" class="cls-3" d="M374.78,25.69h0a2.65,2.65,0,0,1-2.61,3.88l-27.55-2.85h-.54L313.2,29.89a2.65,2.65,0,0,1-2.66-1.5l-3.25-6.8a2.64,2.64,0,0,1,2.89-3.74l33.11,6.47a2.7,2.7,0,0,0,.8,0l25.83-2.86a3.68,3.68,0,0,1,3.66,1.93l1.2,2.27"/><path id="path7142" class="cls-3" d="M383.22,43.91h0a2.48,2.48,0,0,1,.37,1.13h0a2.64,2.64,0,0,1-2.91,2.87l-22.91-2.38a2.67,2.67,0,0,0-.49,0L328,47.93a2.64,2.64,0,0,1-2-.69l-2.58-2.36a2.65,2.65,0,0,1,2-4.59l31.2,2.77a2.52,2.52,0,0,0,.82-.05l19.2-4.38a4.16,4.16,0,0,1,4.49,1.9l2,3.38"/><path id="path7144" class="cls-3" d="M347.72,59.39,363.51,62a2.66,2.66,0,0,0,1.34-.13l6.48-2.35a2.64,2.64,0,0,1,3.4,3.36l-.12.36A2.64,2.64,0,0,1,371.9,65l-7.14-.56a2.53,2.53,0,0,0-1.09.15l-8.39,3a2.66,2.66,0,0,1-2.77-.64l-5.71-5.8a1,1,0,0,1,.92-1.77"/><path id="path7146" class="cls-3" d="M313.75,139.87h0a2.66,2.66,0,0,0,3,1.78l16.4-3.17a2.31,2.31,0,0,1,.64,0l12.17.66a2.65,2.65,0,0,0,2.5-1.45l.43-.85a2.64,2.64,0,0,0-3-3.76L334,136a2.75,2.75,0,0,1-1,0l-18.92-2.82a1.62,1.62,0,0,0-1.78,2.11l1.48,4.54"/><path id="path7148" class="cls-3" d="M369.51,80.39l-4.11,2a2.73,2.73,0,0,1-1.19.27l-16.82-.24a2.66,2.66,0,0,0-2.61,2l-.9,3.84a2.65,2.65,0,0,0,3.45,3.1l17.55-6.15a2.6,2.6,0,0,1,1.38-.1l4.29.82a2.64,2.64,0,0,0,2.74-4l-.39-.61a2.64,2.64,0,0,0-3.39-1"/><path id="path7150" class="cls-3" d="M383.51,99.48h0a2.64,2.64,0,0,1-2.57,3.56l-21-.73a3,3,0,0,0-.6,0l-34.17,6.71a2.65,2.65,0,0,1-2.73-4l4.5-6.84A2.66,2.66,0,0,1,329.48,97l29.79,3.28a2.62,2.62,0,0,0,.79,0l20-3.77a2.67,2.67,0,0,1,3,1.71l.47,1.28"/><path id="path7152" class="cls-3" d="M355.38,169.53h0a2.65,2.65,0,0,1-1.74,4.81L335.47,173l-.65,0L315,175.85a2.65,2.65,0,0,1-2.63-4l2.33-3.78a2.63,2.63,0,0,1,2.93-1.17l16.89,4.45a2.72,2.72,0,0,0,1.3,0l16.34-2.77a3.73,3.73,0,0,1,2.74.61l.48.34"/><path id="path7154" class="cls-3" d="M374.89,112.22,369.8,122.4a2.66,2.66,0,0,1-2.65,1.45l-27.7-2.94a2.74,2.74,0,0,0-.7,0l-27,4.32a2.65,2.65,0,0,1-2.71-3.94l1.6-2.75a2.66,2.66,0,0,1,2.46-1.32l25.64,1.65a2.93,2.93,0,0,0,.66,0l35.46-6.62h0"/><path id="path7156" class="cls-1" d="M380.08,49.73,385.79,41l-.31,13.07a6.54,6.54,0,0,1-1.37,3.85l-5.93,7.68a71.88,71.88,0,0,1-15.26,14.65l-35.25,25a35.76,35.76,0,0,0-6,5.39s-12.14,12.32-15.13,17c.47-2.41.59-3.72.59-3.72A44.24,44.24,0,0,1,316,103.71l2.93-3.74A37.23,37.23,0,0,1,327,92.3l34.57-23.92A53.18,53.18,0,0,0,369.25,62l5-5.08a45.19,45.19,0,0,0,5.78-7.16h0"/><path id="path7158" class="cls-1" d="M357,125l-23.2,16.06a70.1,70.1,0,0,0-18.9,19.44l-13.08,20.12a1.34,1.34,0,0,0,1.13,2.08H309a4.28,4.28,0,0,0,3.68-2.09l3.16-5.29a78.87,78.87,0,0,1,22-23.87l23.92-17a134.53,134.53,0,0,0,18.26-15.61l3.92-4a10.57,10.57,0,0,0,3-7l.45-12,0,.06a31.46,31.46,0,0,1-6.83,10l-1,1a28.69,28.69,0,0,1-2.33,2.07L357,125"/><path id="path7160" class="cls-1" d="M17,6.24V185.48H55.53V81.92L106,185.48h45.79V6.24H113.25V109.56L62.44,6.24Z"/><path id="path7162" class="cls-1" d="M208.83,107.38v46.71h24.76q15.69,0,23.17-6t7.48-18.38q0-22.32-31.87-22.32Zm0-30.15h22.06q15.45,0,22.38-4.79t6.92-15.81q0-10.29-7.54-14.77t-23.84-4.48h-20V77.23Zm-38-71H226.6q38.13,0,55.36,10.85T299.18,51.6q0,16.07-7.54,26.36a30.08,30.08,0,0,1-20,12.38v1.23q17,3.8,24.58,14.22t7.53,27.71q0,24.51-17.71,38.25t-48.12,13.73H170.82V6.24"/><path id="path7164" class="cls-1" d="M504.21,134.58q0,23.65-17.47,37.28t-48.6,13.62q-28.69,0-50.76-10.52v-34.4q18.15,7.88,30.71,11.11a93.11,93.11,0,0,0,23,3.22q12.5,0,19.18-4.66t6.68-13.85a15,15,0,0,0-2.94-9.14,32.58,32.58,0,0,0-8.64-7.71q-5.7-3.7-23.23-11.83-16.44-7.53-24.64-14.45a54.52,54.52,0,0,1-13.12-16.13q-4.9-9.2-4.9-21.51,0-23.18,16.12-36.44T450.15,5.91c9.32,0,14.77,1.27,23.17,3.64,9.35,2.64,14.13,3.72,23.15,7.19L497,51.88a100,100,0,0,0-28.21-13.39c-6.5-2-13.78-1.75-19.83-1.75q-10.79,0-16.55,4.9a16,16,0,0,0-5.76,12.78A15.55,15.55,0,0,0,428.94,63,25.3,25.3,0,0,0,436.36,70q5.08,3.4,24.09,12.24Q485.58,94,494.9,105.73t9.31,28.85"/></g></g></svg>