<svg id="logos" xmlns="http://www.w3.org/2000/svg" viewBox="0 0 2204.61 194.27"><defs><style>.cls-1{fill:#a7c947;}.cls-2{fill:#487a2d;}.cls-3{fill:#f47d20;}.cls-4{fill:#8e8e8e;}.cls-5{fill:#c6c6c6;}.cls-6{fill:#2e86ef;}</style></defs><path d="M1871.91,159.25V96.16h-12.8V86.55h12.8V84.34A27.31,27.31,0,0,1,1873.75,74a20.51,20.51,0,0,1,5.28-7.61,22.49,22.49,0,0,1,8.39-4.67,37,37,0,0,1,11.16-1.58,40.59,40.59,0,0,1,9.53,1.15l-.76,10.07c-1-.18-2.24-.33-3.56-.44s-2.63-.17-3.93-.17c-4.49,0-8,1.17-10.42,3.54s-3.66,5.72-3.66,10.11v2.21h13.67v9.62h-13.67v63.08h-13.87Z"/><path d="M1633.33,135.12a14.66,14.66,0,0,0-1.18-6.06,12.33,12.33,0,0,0-4.12-4.79,34.34,34.34,0,0,0-8-4.11,125.16,125.16,0,0,0-12.74-3.92,118.66,118.66,0,0,1-14.65-4.73,49.23,49.23,0,0,1-11.16-6.12,25.25,25.25,0,0,1-7.07-7.9A20.44,20.44,0,0,1,1572,87.35a21.77,21.77,0,0,1,2.67-10.59,25.68,25.68,0,0,1,7.53-8.46,36.91,36.91,0,0,1,11.69-5.6,53.33,53.33,0,0,1,15.21-2,49.76,49.76,0,0,1,16.41,2.5,38,38,0,0,1,12.11,6.57,28.07,28.07,0,0,1,7.47,9.46,25.7,25.7,0,0,1,2.53,11.09h-14.45a19.59,19.59,0,0,0-1.45-7.59,16.22,16.22,0,0,0-4.45-6.06,21.68,21.68,0,0,0-7.49-4,36,36,0,0,0-10.63-1.41,37.12,37.12,0,0,0-10,1.22,21,21,0,0,0-7,3.32,13.59,13.59,0,0,0-4.13,5,14.92,14.92,0,0,0-1.34,6.32,11.15,11.15,0,0,0,1.45,5.64,15.11,15.11,0,0,0,4.54,4.71,36.44,36.44,0,0,0,7.9,4A108.33,108.33,0,0,0,1612,105a110.16,110.16,0,0,1,16,5.21,44.86,44.86,0,0,1,11.13,6.49A22.44,22.44,0,0,1,1647.8,135a21.76,21.76,0,0,1-2.69,10.81,24.32,24.32,0,0,1-7.68,8.26,38.49,38.49,0,0,1-12,5.28,64.45,64.45,0,0,1-25.67,1,54.35,54.35,0,0,1-9.64-2.52,45.5,45.5,0,0,1-8.55-4.17,32.11,32.11,0,0,1-6.86-5.77,25.47,25.47,0,0,1-4.58-7.4,23.92,23.92,0,0,1-1.64-9H1583a16.23,16.23,0,0,0,2.21,8.64,18.51,18.51,0,0,0,5.93,6,27.19,27.19,0,0,0,8.55,3.45,45.63,45.63,0,0,0,10.15,1.1q11.4,0,17.45-4.16a13.08,13.08,0,0,0,6.08-11.35Z"/><path d="M1690.42,151a22.51,22.51,0,0,0,7.06-1.08,20.38,20.38,0,0,0,5.94-2.95,15.73,15.73,0,0,0,4.19-4.47,13.12,13.12,0,0,0,1.91-5.6h13.11a20.29,20.29,0,0,1-3,9.24,28,28,0,0,1-7,7.73,36.14,36.14,0,0,1-10.07,5.32,37,37,0,0,1-12.18,2,40,40,0,0,1-15.93-2.93,31.88,31.88,0,0,1-11.28-7.9,32.51,32.51,0,0,1-6.71-11.54,43.53,43.53,0,0,1-2.21-13.91v-2.83a43.62,43.62,0,0,1,2.21-13.91,31.63,31.63,0,0,1,18-19.44,39.67,39.67,0,0,1,15.89-2.93,39.15,39.15,0,0,1,12.93,2,32.07,32.07,0,0,1,10,5.53,25.91,25.91,0,0,1,6.64,8.36,26.39,26.39,0,0,1,2.69,10.41h-13.11a17,17,0,0,0-1.76-6.27,16.78,16.78,0,0,0-3.92-5.1,18.72,18.72,0,0,0-5.89-3.45,21.77,21.77,0,0,0-7.59-1.28,22.35,22.35,0,0,0-10.68,2.28,19.27,19.27,0,0,0-6.81,6,24,24,0,0,0-3.63,8.4,43.05,43.05,0,0,0-1,9.37v2.83a43.62,43.62,0,0,0,1,9.5,23.44,23.44,0,0,0,3.61,8.36,19.17,19.17,0,0,0,6.81,6,22.56,22.56,0,0,0,10.74,2.27Z"/><path d="M1774.49,149.29h51.69v10.54H1760V60.68h14.45v88.61Z"/><path d="M1937.6,160.59a42.27,42.27,0,0,1-15.32-2.62,34.33,34.33,0,0,1-11.72-7.29,31.53,31.53,0,0,1-7.49-11.11,36.92,36.92,0,0,1-2.62-14.11v-2.82a40.26,40.26,0,0,1,3-15.86A35.06,35.06,0,0,1,1911.3,95a34.39,34.39,0,0,1,11.3-7.29,36,36,0,0,1,13.26-2.52,38,38,0,0,1,15,2.72,28.26,28.26,0,0,1,10.37,7.48,30.91,30.91,0,0,1,6,11.29,48.88,48.88,0,0,1,2,14.17v5.58h-54.93a28.21,28.21,0,0,0,1.85,9.39,22.32,22.32,0,0,0,4.79,7.6,22.77,22.77,0,0,0,7.49,5.1,24.86,24.86,0,0,0,9.92,1.89,26.19,26.19,0,0,0,12.43-2.69,30.82,30.82,0,0,0,8.92-7.12l8.46,5.9a32.47,32.47,0,0,1-4.73,5.21,31.16,31.16,0,0,1-6.49,4.49,37.21,37.21,0,0,1-8.5,3.17A43.36,43.36,0,0,1,1937.6,160.59Zm-1.72-65.16a21.15,21.15,0,0,0-7.72,1.36,19.34,19.34,0,0,0-6.3,4,21.29,21.29,0,0,0-4.6,6.51,30.7,30.7,0,0,0-2.51,8.94h40.6v-.94a31.9,31.9,0,0,0-1.3-7.18,18.9,18.9,0,0,0-3.37-6.38,17,17,0,0,0-5.88-4.58,20.62,20.62,0,0,0-8.92-1.73Z"/><path d="M1993.41,148.7h51.7v10.55h-66.17V60.1h14.45v88.6Z"/><path d="M2102.16,159.25a12.69,12.69,0,0,1-1.2-3.39c-.3-1.36-.54-2.77-.76-4.27a34.75,34.75,0,0,1-4.38,3.45,31.48,31.48,0,0,1-5.32,2.88,33.58,33.58,0,0,1-6.25,2,34,34,0,0,1-7.11.69,36.08,36.08,0,0,1-11.29-1.67,27.14,27.14,0,0,1-8.61-4.58,20.6,20.6,0,0,1-5.52-6.81,18.73,18.73,0,0,1-1.95-8.42,20.47,20.47,0,0,1,2.54-10.31,21.33,21.33,0,0,1,7.31-7.49,37.16,37.16,0,0,1,11.5-4.58,68.34,68.34,0,0,1,15.07-1.54H2100v-5.7a13.23,13.23,0,0,0-4.34-10.38c-2.91-2.58-7.17-3.86-12.81-3.86a25.26,25.26,0,0,0-7.12.93,19.47,19.47,0,0,0-5.51,2.52,12.38,12.38,0,0,0-3.56,3.67,8.32,8.32,0,0,0-1.28,4.36h-13.93A15,15,0,0,1,2053.7,99a23.33,23.33,0,0,1,6.49-6.87,35.71,35.71,0,0,1,10.15-5,43.22,43.22,0,0,1,13.31-1.91,45.83,45.83,0,0,1,12.17,1.52,26.83,26.83,0,0,1,9.55,4.57,21.48,21.48,0,0,1,6.23,7.62,24,24,0,0,1,2.25,10.68v33.79a44.67,44.67,0,0,0,.72,7.77,27.21,27.21,0,0,0,2.13,7v1.08h-14.54Zm-23-9.48a25.68,25.68,0,0,0,7.06-.94,28.56,28.56,0,0,0,6-2.45,22.16,22.16,0,0,0,4.68-3.45,16.65,16.65,0,0,0,3.11-4V124h-11.55q-11.91,0-18.36,3.32c-4.29,2.22-6.44,5.56-6.44,10a12.33,12.33,0,0,0,1,4.91,10.2,10.2,0,0,0,3,3.92,15,15,0,0,0,4.86,2.63A21.25,21.25,0,0,0,2079.15,149.77Z"/><path d="M2195.15,123.7a49,49,0,0,1-2.11,14.74,34.31,34.31,0,0,1-6.14,11.69,27.79,27.79,0,0,1-9.9,7.69,30.85,30.85,0,0,1-13.34,2.75,35,35,0,0,1-13.87-2.52,26.7,26.7,0,0,1-9.89-7.22l-.68,8.4h-12.74V60.1h13.87V94.56a27.19,27.19,0,0,1,9.75-6.93,34.32,34.32,0,0,1,13.41-2.4A32.09,32.09,0,0,1,2177,87.92a27.58,27.58,0,0,1,9.89,7.55,33.63,33.63,0,0,1,6.1,11.7,51.53,51.53,0,0,1,2.11,15.14v1.39Zm-13.87-1.41a44.2,44.2,0,0,0-1.13-10.24,24.5,24.5,0,0,0-3.62-8.42,18.07,18.07,0,0,0-6.56-5.75,21.11,21.11,0,0,0-9.89-2.13,25.05,25.05,0,0,0-6.9.87,21.76,21.76,0,0,0-5.52,2.41,19.27,19.27,0,0,0-4.23,3.62,25.9,25.9,0,0,0-3.08,4.49v31.45a24.92,24.92,0,0,0,3.19,4.49,19.28,19.28,0,0,0,4.28,3.63,20.25,20.25,0,0,0,5.51,2.4,24.85,24.85,0,0,0,6.9.87,20.4,20.4,0,0,0,9.59-2.08,18.41,18.41,0,0,0,6.51-5.64,24.78,24.78,0,0,0,3.76-8.36,42.21,42.21,0,0,0,1.19-10.24Z"/><path d="M1747.21,159.83h-13.86V87.14h13.86Z"/><circle cx="1740.27" cy="68.84" r="8.16"/><circle cx="1843.15" cy="68.26" r="8.16"/><path d="M1850.1,159.25h-13.87V86.57h13.87Z"/><path class="cls-1" d="M1445.89,112.09a22.93,22.93,0,0,0,2.09-9.7,22.12,22.12,0,0,0-1.07-6.6c-.06-.17-.1-.34-.17-.52l-.06-.19c0-.11-.07-.22-.11-.33a.71.71,0,0,1-.07-.15c-1.34-4.3-4.53-8.2-8.22-12.72-4.54-5.53-9.66-11.78-12.33-20.22-2.6-8.2-2-15.84-1.43-22.57.48-5.75.91-11.2-.67-16.21v0c0-.05,0-.09,0-.13s-.06-.22-.08-.33l-.07-.15c0-.17-.11-.35-.15-.54-.11-.37-.24-.74-.37-1.09l-.06-.15c-.11-.3-.24-.61-.37-.91,0,0,0,0,0,0A22.73,22.73,0,0,0,1397.26,6.3c-.32.06-.67.15-1,.24a.27.27,0,0,1-.13,0,11.4,11.4,0,0,0-1.1.32,22.48,22.48,0,0,0-13.31,11.18,21,21,0,0,0-.93,2.06,22.5,22.5,0,0,0-1.63,8.66,22.12,22.12,0,0,0,1.07,6.6v0c.06.17.11.35.17.52l.07.17s0,.07,0,.11l.06.16a.47.47,0,0,1,0,.1l0,.11c1.32,4.28,4.51,8.18,8.23,12.7,4.53,5.53,9.65,11.8,12.32,20.24s2.08,16.61,1.54,23.79c-.43,5.79-.8,10.78.54,15v0a.5.5,0,0,1,0,.13c0,.1.06.21.09.32l0,.18c0,.17.11.34.15.54s.2.61.3.89a22.72,22.72,0,0,0,28.22,13.91,22.46,22.46,0,0,0,13.3-11.18C1445.59,112.79,1445.74,112.44,1445.89,112.09Z"/><path class="cls-1" d="M1514.08,55a26.92,26.92,0,0,0-49,8.66l-.13.65,0,.21c0,.16-.06.31-.08.46v0a.22.22,0,0,1,0,.11v0c-1.18,5.19-.2,11.09.91,17.93,1.36,8.42,2.93,17.94.65,28.25s-7.75,18.36-12.57,25.46c-3.88,5.7-7.22,10.63-8.33,15.75v0c0,.05,0,.09,0,.13s-.07.26-.11.39l-.07.22c0,.22-.11.43-.15.65a26.94,26.94,0,0,0,20.47,32.12,27.3,27.3,0,0,0,5.88.65,26.73,26.73,0,0,0,14.43-4.23,28.08,28.08,0,0,0,4.19-3.28,26.66,26.66,0,0,0,7.63-13.6c0-.22.09-.44.13-.63l0-.22c0-.15.06-.3.09-.46v0s0-.09,0-.11c1.17-5.21.19-11.11-.91-18-1.37-8.39-2.93-17.92-.66-28.21,2.22-10,7.4-17.53,12-24.13,3.91-5.64,7.6-11,8.94-17.06,0,0,0,0,0,0s0-.09,0-.13.06-.26.11-.39l.06-.22c0-.21.11-.43.15-.65A27,27,0,0,0,1514.08,55Z"/><path class="cls-1" d="M1362.52,64.57a24.22,24.22,0,1,0,11.93,14.19A24,24,0,0,0,1362.52,64.57Z"/><g id="g7130"><path id="path7134" class="cls-2" d="M301.9,15.7h0a4.32,4.32,0,0,0-3.84-2.35h-3.5a2.37,2.37,0,0,0-2.11,3.43l5.85,11.67,5.34,9.09a57.66,57.66,0,0,0,16.66,18L355.08,79.9a43.48,43.48,0,0,1,11.84,12.41l11.35,18.25,1.66-14.7-9.15-16.32A34,34,0,0,0,360,67.92L322.36,42.76l-3.65-3.33a65.81,65.81,0,0,1-14.38-18.91L301.9,15.7"/><path id="path7136" class="cls-2" d="M322.52,152.06h0L310,140.6l-7.55-18.49.27-7.09L299,127.69l2,7.75a36.25,36.25,0,0,0,15.35,21.41l32.91,21.41a19.94,19.94,0,0,0,10.88,3.23h1.35a3.33,3.33,0,0,0,1.65-6.23l-40.6-23.2"/><path id="path7138" class="cls-2" d="M377.52,38.2h0l.15.27a5.15,5.15,0,0,1,.37,3.94L376.62,47a1.79,1.79,0,0,1-3.12.57L354.68,23.42a3.82,3.82,0,0,1,3.21-6.16l5.85.3A5.09,5.09,0,0,1,368,20.27l9.53,17.93"/><path id="path7140" class="cls-3" d="M367.26,25.69h0a2.65,2.65,0,0,1-2.61,3.88L337.1,26.72h-.55l-30.87,3.17a2.65,2.65,0,0,1-2.66-1.5l-3.26-6.8a2.65,2.65,0,0,1,2.9-3.74l33.11,6.47a2.7,2.7,0,0,0,.8,0l25.83-2.86a3.66,3.66,0,0,1,3.65,1.93l1.21,2.27"/><path id="path7142" class="cls-3" d="M375.7,43.91h0a2.48,2.48,0,0,1,.37,1.13h0a2.64,2.64,0,0,1-2.91,2.87l-22.92-2.38a2.57,2.57,0,0,0-.48,0l-29.25,2.4a2.63,2.63,0,0,1-2-.69l-2.58-2.36a2.65,2.65,0,0,1,2-4.59l31.2,2.77A2.52,2.52,0,0,0,350,43l19.2-4.38a4.16,4.16,0,0,1,4.49,1.9l2,3.38"/><path id="path7144" class="cls-3" d="M340.2,59.39,356,62a2.66,2.66,0,0,0,1.34-.13l6.48-2.35a2.64,2.64,0,0,1,3.4,3.36l-.12.36A2.64,2.64,0,0,1,364.38,65l-7.14-.56a2.51,2.51,0,0,0-1.09.15l-8.39,3A2.66,2.66,0,0,1,345,67l-5.71-5.8a1,1,0,0,1,.92-1.77"/><path id="path7146" class="cls-3" d="M306.23,139.87h0a2.65,2.65,0,0,0,3,1.78l16.4-3.17a2.31,2.31,0,0,1,.64,0l12.17.66a2.66,2.66,0,0,0,2.5-1.45l.43-.85a2.64,2.64,0,0,0-3-3.76l-11.91,3a2.75,2.75,0,0,1-1,0l-18.93-2.82a1.62,1.62,0,0,0-1.78,2.11l1.49,4.54"/><path id="path7148" class="cls-3" d="M362,80.39l-4.11,2a2.74,2.74,0,0,1-1.2.27l-16.81-.24a2.66,2.66,0,0,0-2.61,2l-.91,3.84a2.65,2.65,0,0,0,3.46,3.1l17.55-6.15a2.6,2.6,0,0,1,1.38-.1L363,86a2.64,2.64,0,0,0,2.73-4l-.38-.61a2.64,2.64,0,0,0-3.39-1"/><path id="path7150" class="cls-3" d="M376,99.48h0a2.64,2.64,0,0,1-2.57,3.56l-21-.73a3,3,0,0,0-.6,0l-34.18,6.71a2.64,2.64,0,0,1-2.72-4l4.5-6.84A2.65,2.65,0,0,1,322,97l29.8,3.28a2.54,2.54,0,0,0,.78,0l20-3.77a2.67,2.67,0,0,1,3,1.71l.47,1.28"/><path id="path7152" class="cls-3" d="M347.86,169.53h0a2.65,2.65,0,0,1-1.74,4.81L328,173l-.65,0-19.83,2.79a2.64,2.64,0,0,1-2.62-4l2.32-3.78a2.64,2.64,0,0,1,2.93-1.17l16.9,4.45a2.72,2.72,0,0,0,1.3,0l16.34-2.77a3.75,3.75,0,0,1,2.74.61l.48.34"/><path id="path7154" class="cls-3" d="M367.36,112.22l-5.08,10.18a2.66,2.66,0,0,1-2.65,1.45l-27.7-2.94a2.73,2.73,0,0,0-.7,0l-27,4.32a2.65,2.65,0,0,1-2.71-3.94l1.6-2.75a2.65,2.65,0,0,1,2.46-1.32l25.64,1.65a2.93,2.93,0,0,0,.66,0l35.45-6.62h0"/><path id="path7156" class="cls-1" d="M372.55,49.73,378.27,41,378,54.08a6.61,6.61,0,0,1-1.37,3.85l-5.93,7.68A71.88,71.88,0,0,1,355.4,80.26l-35.25,25a35.76,35.76,0,0,0-6,5.39S302,123,299,127.69c.47-2.41.59-3.72.59-3.72a44.33,44.33,0,0,1,8.85-20.26l2.94-3.74a37.23,37.23,0,0,1,8.13-7.67l34.57-23.92A53.18,53.18,0,0,0,361.73,62l5-5.08a45.19,45.19,0,0,0,5.78-7.16h0"/><path id="path7158" class="cls-1" d="M349.44,125l-23.2,16.06a70,70,0,0,0-18.9,19.44l-13.08,20.12a1.34,1.34,0,0,0,1.13,2.08h6.11a4.28,4.28,0,0,0,3.68-2.09l3.16-5.29a78.87,78.87,0,0,1,22-23.87l23.92-17a134.53,134.53,0,0,0,18.26-15.61l3.92-4a10.57,10.57,0,0,0,3-7l.45-12,0,.06a31.46,31.46,0,0,1-6.83,10l-1,1a28.69,28.69,0,0,1-2.33,2.07l-20.33,16"/><path id="path7160" class="cls-1" d="M9.44,6.24V185.48H48V81.92l50.5,103.56H144.3V6.24H105.73V109.56L54.91,6.24Z"/><path id="path7162" class="cls-1" d="M201.31,107.38v46.71h24.76q15.69,0,23.17-6t7.48-18.38q0-22.32-31.88-22.32Zm0-30.15h22.06q15.45,0,22.38-4.79t6.92-15.81q0-10.29-7.54-14.77t-23.84-4.48h-20V77.23Zm-38-71h55.78q38.13,0,55.35,10.85T291.66,51.6q0,16.07-7.54,26.36a30.08,30.08,0,0,1-20.05,12.38v1.23q17,3.8,24.58,14.22t7.54,27.71q0,24.51-17.71,38.25t-48.12,13.73H163.3V6.24"/><path id="path7164" class="cls-1" d="M496.69,134.58q0,23.65-17.47,37.28t-48.61,13.62q-28.68,0-50.75-10.52v-34.4q18.13,7.88,30.71,11.11a93.11,93.11,0,0,0,23,3.22q12.49,0,19.18-4.66t6.68-13.85a15,15,0,0,0-2.94-9.14,32.58,32.58,0,0,0-8.64-7.71q-5.7-3.7-23.23-11.83Q408.17,100.17,400,93.25a54.64,54.64,0,0,1-13.11-16.13q-4.91-9.2-4.91-21.51,0-23.18,16.12-36.44T442.63,5.91c9.31,0,14.77,1.27,23.17,3.64,9.35,2.64,14.13,3.72,23.15,7.19l.48,35.14a100,100,0,0,0-28.2-13.39c-6.5-2-13.78-1.75-19.83-1.75q-10.78,0-16.55,4.9a16,16,0,0,0-5.76,12.78A15.46,15.46,0,0,0,421.42,63,25.18,25.18,0,0,0,428.84,70q5.09,3.4,24.09,12.24Q478.06,94,487.37,105.73t9.32,28.85"/></g><g id="Full"><g id="TEXT"><g id="Infrastructure"><g id="INFR_S_RU_URE" data-name="INFR S RU  URE"><path class="cls-4" d="M751.93,182.31v-4.73H763v-37.9H751.93V135h28.42v4.73H769.23v37.9h11.12v4.73Z"/><path class="cls-4" d="M787.45,182.31V135h6L812.23,171h0V135h5.1v47.36H811.5l-18.77-36.25h-.18v36.25Z"/><path class="cls-4" d="M826.8,182.31V135H856v4.73H833v17.13h19.49v4.73H833v20.77Z"/><path class="cls-4" d="M861.05,182.31V135h11.47c4.37,0,7.65.36,9.66,1.27a9.26,9.26,0,0,1,4.55,4.19,12.67,12.67,0,0,1,1.64,6.2,15,15,0,0,1-2,7.1q-1.92,3.82-7.65,6.56l14.75,22h-7.65l-12.93-20.22h-5.47v20.22Zm6.37-24.95h3.28c3.64,0,6.38-1.1,8.2-3.1a10.69,10.69,0,0,0,2.73-7.29,8.38,8.38,0,0,0-.91-3.82,5.73,5.73,0,0,0-2.91-2.55,18.34,18.34,0,0,0-6.74-.91h-3.65Z"/><path class="cls-4" d="M932.82,181.22V175c5.46,2.55,10.38,3.82,14.39,3.82a12.2,12.2,0,0,0,5.1-1.09,8.35,8.35,0,0,0,3.64-2.92,7,7,0,0,0,1.28-4.19c0-3.09-1.82-5.46-5.65-7.47l-9.11-4.73a21.79,21.79,0,0,1-7.1-5.47,10.54,10.54,0,0,1-2-6.74,11.67,11.67,0,0,1,3.46-8.56c2.37-2.37,6-3.64,10.93-3.64a47.29,47.29,0,0,1,12.38,2v5.47a34,34,0,0,0-12.38-2.74,12.13,12.13,0,0,0-4.56.73,5.49,5.49,0,0,0-2.91,2.37,7.49,7.49,0,0,0-.91,3.46,6.78,6.78,0,0,0,1.45,4c.92,1.27,2.55,2.37,4.92,3.64l8.56,4.38c3.65,1.82,6.2,3.82,7.47,5.64a11.74,11.74,0,0,1,2,6.74,13.13,13.13,0,0,1-4.37,10c-2.92,2.73-7.11,4-12.57,4a46.55,46.55,0,0,1-4.74-.37A84.73,84.73,0,0,1,932.82,181.22Z"/><path class="cls-4" d="M1006.05,182.31V135h11.48c4.37,0,7.65.36,9.65,1.27a9.32,9.32,0,0,1,4.56,4.19,12.66,12.66,0,0,1,1.63,6.2,14.93,14.93,0,0,1-2,7.1c-1.27,2.37-3.82,4.74-7.65,6.56l14.94,22H1031l-12.94-20.22h-5.64v20.22Zm6.19-24.95h3.28c3.65,0,6.38-1.1,8.2-3.1a10.69,10.69,0,0,0,2.73-7.29,8.38,8.38,0,0,0-.91-3.82,5.69,5.69,0,0,0-2.91-2.55,18.3,18.3,0,0,0-6.74-.91h-3.83v17.67Z"/><path class="cls-4" d="M1041.21,135h6.37v31.51c0,3.83.37,6.38,1.1,7.84a9.55,9.55,0,0,0,3.09,3.46,7.42,7.42,0,0,0,4.56,1.09,9.41,9.41,0,0,0,6.56-2.37c1.82-1.64,2.73-4.92,2.73-10.2V135h5.46v30.42a39.1,39.1,0,0,1-.54,7.65,13.15,13.15,0,0,1-4.56,7.29,14.45,14.45,0,0,1-9.47,3.09c-4.74,0-8.38-1.27-11.11-4a11.47,11.47,0,0,1-2.92-4.92,13.15,13.15,0,0,1-.73-3.64c0-1.28-.18-2.74-.18-4.56V135Z"/><path class="cls-4" d="M1150,135h6.38v31.51c0,3.83.36,6.38,1.09,7.84a9.49,9.49,0,0,0,3.1,3.46,7.37,7.37,0,0,0,4.55,1.09,9.39,9.39,0,0,0,6.56-2.37c1.82-1.64,2.73-4.92,2.73-10.2V135h5.47v30.42a38.92,38.92,0,0,1-.55,7.65,13.19,13.19,0,0,1-4.55,7.29,14.48,14.48,0,0,1-9.48,3.09c-4.73,0-8.38-1.27-11.11-4a11.35,11.35,0,0,1-2.91-4.92,12.8,12.8,0,0,1-.73-3.64c0-1.28-.19-2.74-.19-4.56V135Z"/><path class="cls-4" d="M1187.12,182.31V135h11.48c4.37,0,7.65.36,9.65,1.27a9.28,9.28,0,0,1,4.56,4.19,12.67,12.67,0,0,1,1.64,6.2,15,15,0,0,1-2,7.1c-1.27,2.37-3.82,4.74-7.65,6.56l14.76,22h-7.65L1199,162.09h-5.46v20.22Zm6.38-24.95h3.28c3.64,0,6.37-1.1,8.19-3.1a10.65,10.65,0,0,0,2.74-7.29,8.51,8.51,0,0,0-.91-3.82,5.72,5.72,0,0,0-2.92-2.55,18.26,18.26,0,0,0-6.74-.91h-3.64Z"/><path class="cls-4" d="M1224.47,182.31V135h27.69v4.73h-21.5V154.8h18.22v4.74h-18.22v18h22.95v4.73Z"/></g><g id="A_T_CT" data-name="A T  CT"><path class="cls-4" d="M891.83,182.31,908,135h6.38l16.21,47.36h-6.74l-4.55-13.48H901.85l-4.55,13.48Zm11.48-18.21h14.21l-7.11-20.77Z"/><path class="cls-4" d="M980.36,182.31V139.68H964.52V135h37.89v4.73H986.56v42.63Z"/><path class="cls-4" d="M1109.52,181.22a36.5,36.5,0,0,1-12,2.18,22.09,22.09,0,0,1-8.75-1.63,20.79,20.79,0,0,1-6.55-4.38,22.51,22.51,0,0,1-4.92-8.38,31.29,31.29,0,0,1-1.64-10.2,34.08,34.08,0,0,1,1.64-10.38,21.83,21.83,0,0,1,4.37-8.2,17.34,17.34,0,0,1,6.92-4.92,23.38,23.38,0,0,1,8.74-1.64,38.34,38.34,0,0,1,11.48,1.83v5.82a27.48,27.48,0,0,0-11.66-2.91,14.1,14.1,0,0,0-6.19,1.46,11.36,11.36,0,0,0-4.56,4.19,21.58,21.58,0,0,0-2.91,6.92,28.7,28.7,0,0,0-.91,7.83c0,5.83,1.46,10.39,4.37,13.85a13.35,13.35,0,0,0,5.47,4,17.25,17.25,0,0,0,6.92,1.46,27.88,27.88,0,0,0,10.38-2.37v5.47Z"/><path class="cls-4" d="M1125.37,182.31V139.68h-15.85V135h37.89v4.73h-15.85v42.63Z"/></g></g><g id="Genomics"><g id="ENOMI_S" data-name="ENOMI S"><path class="cls-4" d="M933,122.38V75h27.69v4.73H939.2V94.87h18.21v4.74H939.2v18h22.95v4.74Z"/><path class="cls-4" d="M967.07,122.38V75h6l18.76,36.07h0V75h5.1v47.36h-5.65L972.35,86.13h-.18v36.25Z"/><path class="cls-4" d="M1018.25,123.65a14.8,14.8,0,0,1-13.11-6.92c-2.92-4.55-4.56-10.56-4.56-17.85s1.46-13.3,4.56-17.85a15,15,0,0,1,13.11-6.92A14.8,14.8,0,0,1,1031.37,81c2.92,4.55,4.55,10.56,4.55,17.85s-1.45,13.12-4.55,17.85S1024.08,123.65,1018.25,123.65Zm0-4.73a8.82,8.82,0,0,0,8.2-4.92c1.82-3.28,2.92-8.38,2.92-15.12s-.91-11.84-2.92-15.12a9,9,0,0,0-8.2-4.92,8.82,8.82,0,0,0-8.19,4.92c-1.82,3.28-2.92,8.38-2.92,15.12s.91,11.84,2.92,15.12A9.14,9.14,0,0,0,1018.25,118.92Z"/><path class="cls-4" d="M1037.75,122.38V75h7.65l9.11,27h0l8.92-27h7.84v47.36h-5.11V80.66h0l-9.29,29.15h-5.1l-9.47-28h0v40.8h-4.55Z"/><path class="cls-4" d="M1076.55,122.38v-4.74h11.11V79.75h-11.11V75H1105v4.73h-11.12v37.89H1105v4.74Z"/><path class="cls-4" d="M1148.69,121.29v-6.2c5.46,2.55,10.38,3.83,14.39,3.83a12.36,12.36,0,0,0,5.1-1.09,8.35,8.35,0,0,0,3.64-2.92,7.08,7.08,0,0,0,1.28-4.19c0-3.1-1.83-5.46-5.65-7.47l-9.11-4.73a21.81,21.81,0,0,1-7.1-5.47,10.55,10.55,0,0,1-2-6.74,11.67,11.67,0,0,1,3.46-8.56c2.37-2.37,6-3.64,10.93-3.64a46.88,46.88,0,0,1,12.39,2v5.46a34,34,0,0,0-12.39-2.73,11.85,11.85,0,0,0-4.55.73,5.52,5.52,0,0,0-2.92,2.37,7.58,7.58,0,0,0-.91,3.46,6.79,6.79,0,0,0,1.46,4c.91,1.27,2.55,2.37,4.92,3.64l8.56,4.37c3.64,1.82,6.19,3.83,7.47,5.65a11.81,11.81,0,0,1,2,6.74,13.09,13.09,0,0,1-4.37,10c-2.91,2.73-7.1,4-12.57,4-1.46,0-2.91-.19-4.73-.37A84.2,84.2,0,0,1,1148.69,121.29Z"/></g><g id="G_C" data-name="G     C"><path class="cls-4" d="M926.08,121.29a41.62,41.62,0,0,1-7.29,2,38.92,38.92,0,0,1-4.37.36,23.51,23.51,0,0,1-11.66-2.73,18.53,18.53,0,0,1-7.65-8.56,31,31,0,0,1-2.73-13.3,32.73,32.73,0,0,1,2.55-12.93,19.07,19.07,0,0,1,7.47-8.93,22.48,22.48,0,0,1,11.84-3.09,39,39,0,0,1,11.29,1.82v5.83a28.06,28.06,0,0,0-11.66-2.92,12.34,12.34,0,0,0-7.65,2.37,15.28,15.28,0,0,0-5.28,7.29,30,30,0,0,0-1.82,10.93,24.32,24.32,0,0,0,2,10.2,14.05,14.05,0,0,0,6,6.56,17.91,17.91,0,0,0,8.57,2.36c1.09,0,2.36-.18,4.19-.36v-16h6.37v19.13Z"/><path class="cls-4" d="M1144.31,121.29a36.71,36.71,0,0,1-12,2.18,21.87,21.87,0,0,1-8.74-1.64,20.64,20.64,0,0,1-6.56-4.37,22.59,22.59,0,0,1-4.92-8.38,31.6,31.6,0,0,1-1.64-10.2,34.39,34.39,0,0,1,1.64-10.38,21.75,21.75,0,0,1,4.37-8.2,17.14,17.14,0,0,1,6.92-4.92,23.43,23.43,0,0,1,8.75-1.64,38.57,38.57,0,0,1,11.47,1.82v5.83a27.44,27.44,0,0,0-11.65-2.91,14.1,14.1,0,0,0-6.2,1.45,11.34,11.34,0,0,0-4.55,4.19,21.52,21.52,0,0,0-2.92,6.93,29.09,29.09,0,0,0-.91,7.83c0,5.83,1.46,10.38,4.37,13.84a13.29,13.29,0,0,0,5.47,4,17.46,17.46,0,0,0,6.92,1.46,27.88,27.88,0,0,0,10.39-2.37v5.47Z"/></g></g><g id="National"><g id="N_ION_L" data-name="N  ION L"><path class="cls-4" d="M822.61,62.26V14.9h6L847.38,51h0V14.9h5.1V62.26h-5.82L827.71,26h-.18V62.26Z"/><path class="cls-4" d="M932.09,62.26V57.53H943.2V19.64H932.09V14.9h28.42v4.74H949.4V57.53h11.11v4.73Z"/><path class="cls-4" d="M982.55,63.54a14.83,14.83,0,0,1-13.12-6.92c-2.91-4.56-4.55-10.57-4.55-17.85s1.46-13.3,4.55-17.86A15,15,0,0,1,982.55,14a14.83,14.83,0,0,1,13.12,6.92c2.91,4.56,4.55,10.57,4.55,17.86s-1.46,13.11-4.55,17.85S988.38,63.54,982.55,63.54Zm0-4.74a8.84,8.84,0,0,0,8.2-4.91c1.82-3.28,2.91-8.38,2.91-15.12s-.91-11.85-2.91-15.12a9,9,0,0,0-8.2-4.92,8.83,8.83,0,0,0-8.2,4.92c-1.82,3.27-2.91,8.38-2.91,15.12s.91,11.84,2.91,15.12S979.09,58.8,982.55,58.8Z"/><path class="cls-4" d="M1003.86,62.26V14.9h6L1028.64,51h0V14.9h5.1V62.26h-5.83L1009,26h-.18V62.26Z"/><path class="cls-4" d="M1078.73,62.26V14.9h6.38V57.53h22v4.73Z"/></g><g id="AT_A" data-name="AT   A"><path class="cls-4" d="M854.49,62.26,870.7,14.9h6.38l16.21,47.36h-6.74L882,48.78H864.51L860,62.26Zm11.66-18h14.21l-7.11-20.77Z"/><path class="cls-4" d="M907,62.26V19.64H891.1V14.9H929v4.74H913.15V62.26Z"/><path class="cls-4" d="M1035.74,62.26,1052,14.9h6.37l16.21,47.36h-6.74l-4.55-13.48h-17.49l-4.55,13.48Zm11.66-18h14.21l-7.1-20.77Z"/></g></g></g></g><g id="Layer_28" data-name="Layer 28"><g id="LOGO_copy_8" data-name="LOGO copy 8"><g id="Shape_1_copy_80" data-name="Shape 1 copy 80"><rect class="cls-5" x="623.87" y="9.25" width="115.86" height="13.48"/></g><g id="Shape_1_copy_81" data-name="Shape 1 copy 81"><rect class="cls-5" x="620.95" y="27.29" width="111.12" height="13.48"/></g><g id="Shape_1_copy_82" data-name="Shape 1 copy 82"><rect class="cls-5" x="622.41" y="45.14" width="103.29" height="13.48"/></g><g id="Shape_1_copy_83" data-name="Shape 1 copy 83"><rect class="cls-5" x="627.15" y="63.18" width="96.18" height="13.48"/></g><g id="Shape_1_copy_84" data-name="Shape 1 copy 84"><rect class="cls-5" x="635.53" y="81.03" width="83.07" height="13.48"/></g><g id="Shape_1_copy_85" data-name="Shape 1 copy 85"><rect class="cls-5" x="642.08" y="99.06" width="75.05" height="13.48"/></g><g id="Shape_1_copy_86" data-name="Shape 1 copy 86"><rect class="cls-5" x="659.02" y="116.91" width="63.39" height="13.48"/></g><g id="Shape_1_copy_87" data-name="Shape 1 copy 87"><rect class="cls-5" x="676.88" y="134.95" width="50.28" height="13.48"/></g><g id="Shape_1_copy_88" data-name="Shape 1 copy 88"><rect class="cls-5" x="688.9" y="152.8" width="40.26" height="13.48"/></g><g id="Shape_1_copy_89" data-name="Shape 1 copy 89"><rect class="cls-5" x="695.28" y="170.84" width="33.15" height="13.48"/></g><g id="Shape_1_copy_80-2" data-name="Shape 1 copy 80"><rect class="cls-6" x="581.97" y="170.65" width="115.86" height="13.48"/></g><g id="Shape_1_copy_81-2" data-name="Shape 1 copy 81"><rect class="cls-6" x="588.16" y="152.8" width="111.12" height="13.48"/></g><g id="Shape_1_copy_82-2" data-name="Shape 1 copy 82"><rect class="cls-6" x="596.91" y="134.77" width="103.29" height="13.48"/></g><g id="Shape_1_copy_83-2" data-name="Shape 1 copy 83"><rect class="cls-6" x="608.93" y="116.91" width="96.18" height="13.48"/></g><g id="Shape_1_copy_84-2" data-name="Shape 1 copy 84"><rect class="cls-6" x="622.77" y="98.88" width="86.35" height="13.48"/></g><g id="Shape_1_copy_85-2" data-name="Shape 1 copy 85"><rect class="cls-6" x="643.9" y="81.03" width="75.05" height="13.48"/></g><g id="Shape_1_copy_86-2" data-name="Shape 1 copy 86"><rect class="cls-6" x="662.67" y="62.99" width="63.39" height="13.48"/></g><g id="Shape_1_copy_87-2" data-name="Shape 1 copy 87"><rect class="cls-6" x="682.34" y="45.14" width="50.28" height="13.48"/></g><g id="Shape_1_copy_88-2" data-name="Shape 1 copy 88"><rect class="cls-6" x="699.83" y="27.11" width="40.26" height="13.48"/></g><g id="Shape_1_copy_89-2" data-name="Shape 1 copy 89"><rect class="cls-6" x="708.03" y="9.25" width="33.15" height="13.48"/></g></g></g></svg>