<?xml version="1.0" encoding="iso-8859-1"?>
<!-- Generator: Adobe Illustrator 16.0.0, SVG Export Plug-In . SVG Version: 6.00 Build 0)  -->
<!DOCTYPE svg PUBLIC "-//W3C//DTD SVG 1.1//EN" "http://www.w3.org/Graphics/SVG/1.1/DTD/svg11.dtd">
<svg version="1.1" id="Capa_1" xmlns="http://www.w3.org/2000/svg" xmlns:xlink="http://www.w3.org/1999/xlink" x="0px" y="0px"
	 width="607.615px" height="607.615px" viewBox="0 0 607.615 607.615" style="enable-background:new 0 0 607.615 607.615;"
	 xml:space="preserve">
<g>
	<g>
		<g>
			<path d="M22.923,487.33h562.772c11.83,0,21.42-9.59,21.42-21.42V57.116c0-11.83-9.59-21.42-21.42-21.42H325.117V24.257
				c0-11.83-9.59-21.42-21.419-21.42c-11.83,0-21.42,9.59-21.42,21.42v11.438H22.923c-11.83,0-21.42,9.59-21.42,21.42V465.91
				C1.502,477.74,11.093,487.33,22.923,487.33z M44.343,78.536h519.933V444.49H44.343V78.536z"/>
			<path d="M585.695,487.83H22.923c-12.087,0-21.92-9.833-21.92-21.92V57.116c0-12.087,9.833-21.92,21.92-21.92h258.855V24.257
				c0-12.087,9.833-21.92,21.92-21.92c12.086,0,21.919,9.833,21.919,21.92v10.938h260.078c12.087,0,21.92,9.833,21.92,21.92V465.91
				C607.615,477.997,597.782,487.83,585.695,487.83z M22.923,36.195c-11.536,0-20.92,9.385-20.92,20.92V465.91
				c0,11.535,9.385,20.92,20.92,20.92h562.772c11.535,0,20.92-9.385,20.92-20.92V57.116c0-11.536-9.385-20.92-20.92-20.92H324.617
				V24.257c0-11.535-9.385-20.92-20.919-20.92c-11.535,0-20.92,9.385-20.92,20.92v11.938H22.923z M564.775,444.99H43.843V78.036
				h520.933V444.99z M44.843,443.99h518.933V79.036H44.843V443.99z"/>
		</g>
		<g>
			<path d="M21.92,554.29h73.233L83.38,571.039c-6.803,9.678-4.473,23.038,5.206,29.842c3.746,2.633,8.043,3.897,12.299,3.897
				c6.739,0,13.374-3.172,17.542-9.104l29.089-41.385h311.897l29.014,41.366c4.168,5.942,10.809,9.122,17.555,9.122
				c4.248,0,8.539-1.261,12.281-3.885c9.686-6.793,12.029-20.15,5.236-29.836l-11.76-16.768h73.123c11.83,0,21.42-9.59,21.42-21.42
				s-9.59-21.42-21.42-21.42H21.92c-11.83,0-21.42,9.59-21.42,21.42S10.09,554.29,21.92,554.29z"/>
			<path d="M505.982,605.278c-7.148,0-13.864-3.489-17.964-9.335l-28.864-41.153H147.777l-28.939,41.172
				c-4.1,5.834-10.811,9.316-17.952,9.316c-4.522,0-8.874-1.379-12.587-3.988c-4.79-3.367-7.982-8.398-8.989-14.166
				c-1.006-5.769,0.294-11.583,3.661-16.372L94.19,554.79H21.92C9.833,554.79,0,544.957,0,532.87s9.833-21.92,21.92-21.92h562.943
				c12.087,0,21.92,9.833,21.92,21.92s-9.833,21.92-21.92,21.92h-72.162l11.208,15.98c6.94,9.896,4.537,23.593-5.358,30.532
				C514.842,603.903,510.496,605.278,505.982,605.278z M147.257,553.79h312.417l29.163,41.579
				c3.913,5.579,10.322,8.909,17.146,8.909c4.307,0,8.454-1.312,11.994-3.794c4.575-3.209,7.626-8.007,8.592-13.511
				c0.966-5.503-0.269-11.054-3.478-15.629l-12.312-17.555h74.084c11.535,0,20.92-9.385,20.92-20.92s-9.385-20.92-20.92-20.92H21.92
				C10.385,511.95,1,521.335,1,532.87s9.385,20.92,20.92,20.92h74.195L83.79,571.326c-3.214,4.572-4.455,10.121-3.494,15.626
				c0.96,5.505,4.007,10.306,8.579,13.52c3.543,2.49,7.697,3.807,12.012,3.807c6.815,0,13.221-3.324,17.133-8.891L147.257,553.79z"
				/>
		</g>
		<g>
			<path d="M155.724,245.352h-25.311c-32.058,0-58.14,26.082-58.14,58.14v61.877c0,32.058,26.082,58.14,58.14,58.14h25.311
				c32.059,0,58.14-26.082,58.14-58.14v-61.877C213.864,271.433,187.783,245.352,155.724,245.352z M171.024,365.367
				c0,8.45-6.85,15.3-15.3,15.3h-25.311c-8.45,0-15.3-6.85-15.3-15.3v-61.876c0-8.45,6.85-15.3,15.3-15.3h25.311
				c8.45,0,15.3,6.85,15.3,15.3V365.367z"/>
			<path d="M155.724,424.008h-25.311c-32.334,0-58.64-26.306-58.64-58.64v-61.877c0-32.334,26.306-58.64,58.64-58.64h25.311
				c32.334,0,58.64,26.306,58.64,58.64v61.877C214.364,397.702,188.059,424.008,155.724,424.008z M130.414,245.852
				c-31.783,0-57.64,25.857-57.64,57.64v61.877c0,31.782,25.857,57.64,57.64,57.64h25.311c31.783,0,57.64-25.857,57.64-57.64
				v-61.877c0-31.783-25.857-57.64-57.64-57.64H130.414z M155.724,381.167h-25.311c-8.712,0-15.8-7.088-15.8-15.8v-61.876
				c0-8.712,7.088-15.8,15.8-15.8h25.311c8.712,0,15.8,7.088,15.8,15.8v61.876C171.524,374.079,164.437,381.167,155.724,381.167z
				 M130.414,288.691c-8.161,0-14.8,6.639-14.8,14.8v61.876c0,8.16,6.639,14.8,14.8,14.8h25.311c8.161,0,14.8-6.64,14.8-14.8
				v-61.876c0-8.161-6.639-14.8-14.8-14.8H130.414z"/>
		</g>
		<g>
			<path d="M316.047,103.982h-25.311c-32.059,0-58.14,26.082-58.14,58.14v203.245c0,32.059,26.082,58.14,58.14,58.14h25.311
				c32.059,0,58.141-26.081,58.141-58.14V162.122C374.188,130.063,348.105,103.982,316.047,103.982z M331.348,365.367
				c0,8.45-6.852,15.3-15.301,15.3h-25.311c-8.45,0-15.3-6.85-15.3-15.3V162.122c0-8.45,6.85-15.3,15.3-15.3h25.311
				c8.449,0,15.301,6.85,15.301,15.3V365.367z"/>
			<path d="M316.047,424.007h-25.311c-32.334,0-58.64-26.306-58.64-58.64V162.122c0-32.334,26.306-58.64,58.64-58.64h25.311
				c32.335,0,58.641,26.306,58.641,58.64v203.245C374.688,397.701,348.382,424.007,316.047,424.007z M290.736,104.482
				c-31.783,0-57.64,25.857-57.64,57.64v203.245c0,31.782,25.857,57.64,57.64,57.64h25.311c31.783,0,57.641-25.857,57.641-57.64
				V162.122c0-31.783-25.857-57.64-57.641-57.64H290.736z M316.047,381.167h-25.311c-8.712,0-15.8-7.088-15.8-15.8V162.122
				c0-8.712,7.088-15.8,15.8-15.8h25.311c8.713,0,15.801,7.088,15.801,15.8v203.245C331.848,374.079,324.76,381.167,316.047,381.167
				z M290.736,147.322c-8.161,0-14.8,6.639-14.8,14.8v203.245c0,8.16,6.639,14.8,14.8,14.8h25.311c8.161,0,14.801-6.64,14.801-14.8
				V162.122c0-8.161-6.64-14.8-14.801-14.8H290.736z"/>
		</g>
		<g>
			<path d="M476.982,176.859h-25.311c-32.059,0-58.141,26.082-58.141,58.14v130.368c0,32.059,26.082,58.14,58.141,58.14h25.311
				c32.059,0,58.139-26.081,58.139-58.14V235C535.121,202.941,509.041,176.859,476.982,176.859z M492.281,365.367
				c0,8.45-6.85,15.3-15.299,15.3h-25.311c-8.451,0-15.301-6.85-15.301-15.3V235c0-8.45,6.85-15.3,15.301-15.3h25.311
				c8.449,0,15.299,6.851,15.299,15.3V365.367z"/>
			<path d="M476.982,424.007h-25.311c-32.335,0-58.641-26.306-58.641-58.64V235c0-32.334,26.306-58.64,58.641-58.64h25.311
				c32.333,0,58.639,26.306,58.639,58.64v130.368C535.621,397.701,509.315,424.007,476.982,424.007z M451.672,177.359
				c-31.783,0-57.641,25.857-57.641,57.64v130.368c0,31.782,25.857,57.64,57.641,57.64h25.311c31.782,0,57.639-25.857,57.639-57.64
				V235c0-31.783-25.856-57.64-57.639-57.64H451.672z M476.982,381.167h-25.311c-8.713,0-15.801-7.088-15.801-15.8V235
				c0-8.712,7.088-15.8,15.801-15.8h25.311c8.712,0,15.799,7.088,15.799,15.8v130.368
				C492.781,374.079,485.694,381.167,476.982,381.167z M451.672,220.199c-8.161,0-14.801,6.639-14.801,14.8v130.368
				c0,8.16,6.64,14.8,14.801,14.8h25.311c8.16,0,14.799-6.64,14.799-14.8V235c0-8.161-6.639-14.8-14.799-14.8H451.672z"/>
		</g>
	</g>
</g>
<g>
</g>
<g>
</g>
<g>
</g>
<g>
</g>
<g>
</g>
<g>
</g>
<g>
</g>
<g>
</g>
<g>
</g>
<g>
</g>
<g>
</g>
<g>
</g>
<g>
</g>
<g>
</g>
<g>
</g>
</svg>
