<svg xmlns="http://www.w3.org/2000/svg" viewBox="0 0 497.98 190.99"><defs><style>.cls-1{fill:#487a2d;}.cls-2{fill:#f47d20;}.cls-3{fill:#a7c947;}</style></defs><g id="Layer_2" data-name="Layer 2"><g id="g7130"><path id="path7134" class="cls-1" d="M295.3,15.5h0a4.28,4.28,0,0,0-3.83-2.36H288a2.37,2.37,0,0,0-2.12,3.44l5.85,11.67L297,37.33a57.67,57.67,0,0,0,16.66,18L348.48,79.7a43.35,43.35,0,0,1,11.84,12.41l11.35,18.24,1.66-14.7-9.15-16.31a33.93,33.93,0,0,0-10.75-11.63L315.76,42.55l-3.65-3.32a65.74,65.74,0,0,1-14.37-18.91L295.3,15.5"/><path id="path7136" class="cls-1" d="M315.92,151.86h0L303.35,140.4l-7.55-18.5.28-7.09-3.67,12.67,2,7.75a36.19,36.19,0,0,0,15.34,21.41l32.92,21.42a20,20,0,0,0,10.87,3.22h1.35a3.34,3.34,0,0,0,1.66-6.23l-40.61-23.19"/><path id="path7138" class="cls-1" d="M370.93,38h0l.14.27a5.12,5.12,0,0,1,.37,3.93L370,46.83a1.79,1.79,0,0,1-3.12.57L348.08,23.21a3.82,3.82,0,0,1,3.21-6.15l5.85.3a5.13,5.13,0,0,1,4.26,2.7L370.93,38"/><path id="path7140" class="cls-2" d="M360.66,25.49h0a2.64,2.64,0,0,1-2.61,3.87L330.5,26.52a2.44,2.44,0,0,0-.54,0l-30.88,3.16a2.65,2.65,0,0,1-2.66-1.49l-3.25-6.81a2.65,2.65,0,0,1,2.9-3.74l33.1,6.47a2.41,2.41,0,0,0,.8,0l25.83-2.87a3.7,3.7,0,0,1,3.66,1.93l1.2,2.28"/><path id="path7142" class="cls-2" d="M369.1,43.7h0a2.66,2.66,0,0,1,.38,1.13h0a2.65,2.65,0,0,1-2.91,2.87l-22.92-2.37a2.69,2.69,0,0,0-.49,0l-29.24,2.4a2.64,2.64,0,0,1-2-.68l-2.58-2.37a2.65,2.65,0,0,1,2-4.59l31.2,2.78a2.84,2.84,0,0,0,.82-.06l19.2-4.38a4.15,4.15,0,0,1,4.49,1.91l2,3.37"/><path id="path7144" class="cls-2" d="M333.6,59.18l15.79,2.64a2.77,2.77,0,0,0,1.34-.12l6.48-2.35a2.64,2.64,0,0,1,3.4,3.35l-.12.37a2.67,2.67,0,0,1-2.71,1.77l-7.14-.56a2.69,2.69,0,0,0-1.09.14l-8.39,3a2.64,2.64,0,0,1-2.77-.64L332.68,61a1.05,1.05,0,0,1,.92-1.78"/><path id="path7146" class="cls-2" d="M299.63,139.66h0a2.66,2.66,0,0,0,3,1.78l16.4-3.17a2.76,2.76,0,0,1,.64-.05l12.17.66a2.63,2.63,0,0,0,2.5-1.45l.43-.84a2.65,2.65,0,0,0-3-3.77l-11.91,3a2.56,2.56,0,0,1-1,.05L299.93,133a1.62,1.62,0,0,0-1.78,2.11l1.48,4.54"/><path id="path7148" class="cls-2" d="M355.39,80.18l-4.11,2a2.58,2.58,0,0,1-1.19.26l-16.82-.23a2.64,2.64,0,0,0-2.61,2l-.9,3.84a2.65,2.65,0,0,0,3.45,3.11L350.77,85a2.66,2.66,0,0,1,1.37-.1l4.29.83a2.65,2.65,0,0,0,2.74-4l-.38-.61a2.66,2.66,0,0,0-3.4-1"/><path id="path7150" class="cls-2" d="M369.39,99.27h0a2.64,2.64,0,0,1-2.57,3.56l-21-.72a2.43,2.43,0,0,0-.6,0l-34.17,6.72a2.65,2.65,0,0,1-2.73-4.06L312.86,98a2.64,2.64,0,0,1,2.5-1.18l29.79,3.28a2.61,2.61,0,0,0,.79,0l20-3.77a2.69,2.69,0,0,1,3,1.71l.47,1.28"/><path id="path7152" class="cls-2" d="M341.26,169.32h0a2.65,2.65,0,0,1-1.74,4.81l-18.17-1.3-.64,0-19.83,2.79a2.65,2.65,0,0,1-2.63-4l2.33-3.78a2.65,2.65,0,0,1,2.93-1.17l16.89,4.45a2.6,2.6,0,0,0,1.3,0l16.35-2.77a3.68,3.68,0,0,1,2.73.62l.48.33"/><path id="path7154" class="cls-2" d="M360.77,112l-5.09,10.17a2.65,2.65,0,0,1-2.65,1.45l-27.7-2.94a2.28,2.28,0,0,0-.69,0l-27,4.31a2.65,2.65,0,0,1-2.71-3.94l1.6-2.75A2.63,2.63,0,0,1,299,117l25.64,1.64a2.44,2.44,0,0,0,.66,0L360.77,112h0"/><path id="path7156" class="cls-3" d="M366,49.53l5.71-8.72-.31,13.07A6.52,6.52,0,0,1,370,57.73l-5.93,7.67A72.17,72.17,0,0,1,348.8,80.06l-35.25,25a35.7,35.7,0,0,0-6,5.38s-12.14,12.33-15.13,17c.47-2.41.6-3.72.6-3.72a44.16,44.16,0,0,1,8.85-20.26l2.93-3.74a37.29,37.29,0,0,1,8.14-7.67l34.56-23.91a53.83,53.83,0,0,0,7.64-6.41l5-5.09A45.17,45.17,0,0,0,366,49.53h0"/><path id="path7158" class="cls-3" d="M342.84,124.8l-23.2,16a70.14,70.14,0,0,0-18.9,19.45l-13.08,20.11a1.34,1.34,0,0,0,1.13,2.08h6.11a4.27,4.27,0,0,0,3.68-2.09l3.16-5.29a78.83,78.83,0,0,1,22-23.86l23.92-17A135.17,135.17,0,0,0,366,118.65l3.92-4a10.59,10.59,0,0,0,3-7l.45-12,0,.06a31.5,31.5,0,0,1-6.82,10l-1,1a24.09,24.09,0,0,1-2.33,2.07L342.84,124.8"/><path id="path7160" class="cls-3" d="M6.84,6V185.27H45.41V81.72L95.92,185.27H141.7V6H103.13V109.36L52.32,6Z"/><path id="path7162" class="cls-3" d="M190.71,107.18v46.71h24.76q15.69,0,23.17-6t7.48-18.39q0-22.31-31.87-22.31Zm0-30.16h22.07q15.43,0,22.37-4.78t6.92-15.82q0-10.29-7.53-14.77t-23.85-4.47h-20V77Zm-38-71h55.78q38.13,0,55.36,10.85T281.06,51.4q0,16.07-7.54,26.36a30.15,30.15,0,0,1-20,12.38v1.22q17,3.81,24.58,14.22t7.54,27.71q0,24.53-17.72,38.25t-48.12,13.73H152.7V6"/><path id="path7164" class="cls-3" d="M494.09,134.38q0,23.66-17.47,37.27T428,185.27q-28.69,0-50.76-10.51V140.35q18.15,7.89,30.71,11.11a93.16,93.16,0,0,0,23,3.23q12.5,0,19.18-4.66t6.68-13.86a15,15,0,0,0-2.94-9.14,32.58,32.58,0,0,0-8.64-7.71q-5.7-3.7-23.23-11.82Q405.59,100,397.37,93a54.52,54.52,0,0,1-13.12-16.13q-4.9-9.19-4.9-21.5,0-23.17,16.12-36.44T440,5.71c9.32,0,14.77,1.26,23.17,3.64,9.35,2.64,14.14,3.71,23.15,7.18l.49,35.14a100,100,0,0,0-28.21-13.39c-6.5-2-13.78-1.75-19.83-1.75q-10.79,0-16.55,4.9a16,16,0,0,0-5.76,12.78,15.5,15.5,0,0,0,2.33,8.54,25.3,25.3,0,0,0,7.42,7q5.08,3.4,24.09,12.25,25.13,11.7,34.45,23.47t9.31,28.86"/></g></g></svg>